# xmcd
#
# Track frame offsets: 
#        150
#        18350
#        36360
#        55752
#        79377
#        96507
#        119190
#        151205
#        172225
#        196445
#
# Disc length: 2810 seconds
#
# Revision: 0
# Processed by: cddbd v1.5.1PL2 Copyright (c) Steve Scherf et al.
# Submitted via: ExactAudioCopy v0.95b2
#
DISCID=8e0af80a
DTITLE=The Sandman - In The United States Of Love
DYEAR=2000
DGENRE=Folk
TTITLE0=The United States Of Love
TTITLE1=Why
TTITLE2=True Love
TTITLE3=The Wild Side
TTITLE4=Mean Man Blues
TTITLE5=Doublin Up
TTITLE6=The Speed Limit
TTITLE7=Movin On
TTITLE8=The Saddest Thing
TTITLE9=I'm The Sandman
EXTD=
EXTT0=
EXTT1=
EXTT2=
EXTT3=
EXTT4=
EXTT5=
EXTT6=
EXTT7=
EXTT8=
EXTT9=
PLAYORDER=
